<?xml version="1.0" encoding="utf-8"?>
<svg width="38" height="38" fill="white"  xmlns="http://www.w3.org/2000/svg" version="1.1" viewBox="0 0 512 512" x="0px" y="0px">
<g id="_x31_3_x2C__Facebook_Popular_Social_Media_Icon">
	<g>
		<path d="M424.74,1H87.26C39.696,1,1,39.696,1,87.26v337.48C1,472.304,39.696,511,87.26,511h337.48&#xD;&#xA;			c47.563,0,86.26-38.696,86.26-86.26V87.26C511,39.696,472.304,1,424.74,1z M481,424.74c0,31.021-25.238,56.26-56.26,56.26H87.26&#xD;&#xA;			C56.238,481,31,455.762,31,424.74V87.26C31,56.238,56.238,31,87.26,31h337.48C455.762,31,481,56.238,481,87.26V424.74z"/>
		<path d="M361,76h-49c-68.099,0-123.5,55.401-123.5,123.5V211H151c-8.284,0-15,6.716-15,15v60c0,8.284,6.716,15,15,15h37.5v120&#xD;&#xA;			c0,8.284,6.716,15,15,15h60c8.284,0,15-6.716,15-15V301H331c8.284,0,15-6.716,15-15v-60c0-8.284-6.716-15-15-15h-52.5v-11.5&#xD;&#xA;			c0-18.472,15.028-33.5,33.5-33.5h49c8.284,0,15-6.716,15-15V91C376,82.716,369.284,76,361,76z M346,136h-34&#xD;&#xA;			c-35.014,0-63.5,28.486-63.5,63.5V226c0,8.284,6.716,15,15,15H316v30h-52.5c-8.284,0-15,6.716-15,15v120h-30V286&#xD;&#xA;			c0-8.284-6.716-15-15-15H166v-30h37.5c8.284,0,15-6.716,15-15v-26.5c0-51.556,41.944-93.5,93.5-93.5h34V136z"/>
	</g>
</g>
<g id="Layer_1">
</g>
</svg>